<?xml version="1.0" encoding="UTF-8"?><svg id="Ebene_2" xmlns="http://www.w3.org/2000/svg" viewBox="0 0 151.82 38.59"><g id="Ebene_2-2"><g id="Logo"><g id="Logo-2"><path id="M" d="M53.35,37.34h.84v.52h-11.35v-.47h.78c.59,0,1.1-.23,1.52-.71,.42-.47,.59-.98,.52-1.54l-2.35-26.31-10.98,24.43c-.98,2.13-1.57,3.91-1.78,5.34h-.52L16.63,9.56l-2.25,25.58c-.07,.56,.1,1.07,.52,1.54,.42,.47,.91,.71,1.46,.71h.84v.47H7.06v-.52h.84c.98,0,1.82-.3,2.54-.89,.71-.59,1.14-1.39,1.28-2.41L15.64,.51h.52l14.59,31.54L45.04,.51h.47l4.03,33.53c.17,1.39,.87,2.37,2.09,2.93,.52,.24,1.1,.37,1.73,.37Z"/><path id="A" d="M92.43,37.34h.42v.52h-11.77v-.52h.47c.73,0,1.28-.24,1.65-.71,.37-.47,.55-.92,.55-1.33s-.07-.84-.21-1.26l-3.35-8.89h-14.12l-3.5,8.94c-.14,.42-.21,.83-.21,1.23s.18,.84,.55,1.31c.37,.47,.92,.71,1.65,.71h.47v.52h-10.51v-.52h.47c.87,0,1.73-.28,2.56-.84,.84-.56,1.52-1.38,2.04-2.46l11.82-28.14c1.29-2.82,1.94-4.62,1.94-5.39h.47l14.02,33.53c.49,1.08,1.15,1.9,1.99,2.46,.84,.56,1.71,.84,2.62,.84Zm-25.74-13.76h12.87l-6.28-16.79-6.59,16.79Z"/><path id="R" d="M119.17,36.34c-1.86-1.24-4-4.1-6.5-8.05s-3.37-4.82-3.71-5.26c-.35-.44-.72-.86-1.1-1.28-1.12-1.18-2.23-1.78-3.35-1.78v-.52c.28,.04,.64,.05,1.1,.05s1.01-.02,1.67-.05c4.32-.1,7.04-1.92,8.16-5.44,.21-.7,.31-1.35,.31-1.96v-1.18c-.07-2.34-.68-4.22-1.83-5.65-1.15-1.43-2.7-2.2-4.65-2.3-.84-.03-1.88-.05-3.14-.05h-3.28s-.07,.03-.07,.07v30.96c0,.85,.26,1.7,.83,2.33,.67,.74,1.51,1.11,2.52,1.11h.63l.05,.52h-11.46v-.52h.54c.89,0,1.78-.29,2.42-.9s1.02-1.41,1.06-2.34V5.06c-.04-.92-.39-1.71-1.05-2.36s-1.53-.93-2.43-.93h-.54v-.52h14.12c3.17,0,5.67,.88,7.48,2.64,1.81,1.76,2.72,4.05,2.72,6.85s-.86,5.23-2.59,7.27c-1.61,1.91-3.55,2.92-5.82,3.05-.13,0-.18,.17-.07,.24,.43,.27,.91,.67,1.45,1.21,.71,.72,1.35,1.46,1.91,2.22,3,4.29,4.11,5.58,5.86,7.92,2.76,3.68,5.76,4.49,8.86,4.49,2.33,0,3.21-.35,4.02-.8,.56-.31,1.12-.84,1.54-1.43s.64-1.3,.66-2.03c.05-1.5-.53-2.75-1.33-3.55-1.42-1.42-2.56-1.11-4-2s-1.84-1.4-2.65-2.71-1.1-2.51-.77-4.14c.46-2.23,2.28-5.83,3.83-5.49s2.42,4.04,2.2,5.13-.96,2.05-1.19,3.14c-.25,1.21,0,1.8,.99,3.05,.48,.6,1.79,1.17,3.11,2.78,1.2,1.46,.6,3.86,.79,4.41,.03,.08,.12,.11,.21,.11,.26-.02,.23,.04,1.11-.5,1.01-.61,3.24-1.45,5.51-1.45s2.86,0,4.68,.59,3.18,1.78,3.64,2.38,0,1.19-.45,1.78-2.73,2.38-5,.59-4.23-2.97-5.13-2.97-4.07,.47-4.89,1.38-2.98,2.91-5.98,2.91-8,0-11-2Z"/></g><path id="Stern" d="M5.14,14.01c-.09-1.45-.44-5.04-.44-5.04-.1-.55-.1-.94-.28-1.19-.18-.23-1.28-.42-2.18-.45,0,0-.93-.06-2.17-.22-.09-.01-.09-.15,0-.16,1.24-.16,2.17-.22,2.17-.22,.6-.02,2.06-.29,2.19-.47,.18-.24,.17-.62,.27-1.16,0,0,.35-3.59,.44-5.04,0-.1,.15-.1,.16,0,.09,1.45,.44,5.04,.44,5.04,.1,.55,.1,.94,.28,1.18,.18,.23,1.28,.42,2.18,.45,0,0,.93,.06,2.17,.22,.09,.01,.09,.15,0,.16-1.24,.16-2.17,.22-2.17,.22-.9,.03-2,.22-2.18,.45-.19,.24-.18,.63-.28,1.19,0,0-.35,3.59-.44,5.04,0,.1-.15,.1-.16,0Z"/></g><path d="M144.67,23.34c.22,0,.46,.17,.49,.45,.03,.27-.17,.52-.44,.55-.02,0-.04,0-.06,0-.22,0-.46-.17-.49-.45-.03-.27,.17-.52,.44-.55,.02,0,.04,0,.06,0m0-3c-.13,0-.26,0-.39,.02-1.92,.21-3.31,1.94-3.1,3.86,.2,1.79,1.71,3.12,3.47,3.12,.13,0,.26,0,.39-.02,1.92-.21,3.31-1.94,3.1-3.86-.2-1.79-1.71-3.12-3.47-3.12h0Z"/></g></svg>