<?xml version="1.0" encoding="UTF-8"?><svg id="Ebene_2" xmlns="http://www.w3.org/2000/svg" viewBox="0 0 10.44 14.08"><defs><style>.cls-1{fill:#fff;}</style></defs><g id="Stern"><path id="Stern-2" class="cls-1" d="M5.14,14.01c-.09-1.45-.44-5.04-.44-5.04-.1-.55-.1-.94-.28-1.19-.18-.23-1.28-.42-2.18-.45,0,0-.93-.06-2.17-.22-.09-.01-.09-.15,0-.16,1.24-.16,2.17-.22,2.17-.22,.6-.02,2.06-.29,2.19-.47,.18-.24,.17-.62,.27-1.16,0,0,.35-3.59,.44-5.04,0-.1,.15-.1,.16,0,.09,1.45,.44,5.04,.44,5.04,.1,.55,.1,.94,.28,1.18,.18,.23,1.28,.42,2.18,.45,0,0,.93,.06,2.17,.22,.09,.01,.09,.15,0,.16-1.24,.16-2.17,.22-2.17,.22-.9,.03-2,.22-2.18,.45-.19,.24-.18,.63-.28,1.19,0,0-.35,3.59-.44,5.04,0,.1-.15,.1-.16,0Z"/></g></svg>